<?xml version="1.0" encoding="UTF-8" standalone="no"?>
<!DOCTYPE svg PUBLIC "-//W3C//DTD SVG 1.1//EN"
 "http://www.w3.org/Graphics/SVG/1.1/DTD/svg11.dtd">
<!-- Generated by graphviz version 2.38.0 (20140413.2041)
 -->
<!-- Title: G Pages: 1 -->
<svg width="427pt" height="807pt"
 viewBox="0.00 0.00 426.61 807.43" xmlns="http://www.w3.org/2000/svg" xmlns:xlink="http://www.w3.org/1999/xlink">
<g id="graph0" class="graph" transform="scale(1 1) rotate(0) translate(4 803.426)">
<title>G</title>
<polygon fill="white" stroke="none" points="-4,4 -4,-803.426 422.607,-803.426 422.607,4 -4,4"/>
<!-- n1 -->
<g id="node1" class="node"><title>n1</title>
<g id="a_node1"><a xlink:title="[/home/nsharma/torch/install/share/lua/5.2/nngraph/init.lua]:76_">
<ellipse fill="none" stroke="black" cx="209.304" cy="-222.676" rx="209.107" ry="111.946"/>
<text text-anchor="middle" x="209.304" y="-286.476" font-family="Times,serif" font-size="14.00">Node1</text>
<text text-anchor="start" x="69.3036" y="-271.476" font-family="Times,serif" font-size="14.00">reverseMap = {}</text>
<text text-anchor="start" x="69.3036" y="-256.476" font-family="Times,serif" font-size="14.00">module = nn.Sequential {</text>
<text text-anchor="start" x="69.3036" y="-241.476" font-family="Times,serif" font-size="14.00"> &#160;[input &#45;&gt; (1) &#45;&gt; (2) &#45;&gt; (3) &#45;&gt; (4) &#45;&gt; (5) &#45;&gt; output]</text>
<text text-anchor="start" x="69.3036" y="-226.476" font-family="Times,serif" font-size="14.00"> &#160;(1): nn.gModule</text>
<text text-anchor="start" x="69.3036" y="-211.476" font-family="Times,serif" font-size="14.00"> &#160;(2): nn.gModule</text>
<text text-anchor="start" x="69.3036" y="-196.476" font-family="Times,serif" font-size="14.00"> &#160;(3): nn.gModule</text>
<text text-anchor="start" x="69.3036" y="-181.476" font-family="Times,serif" font-size="14.00"> &#160;(4): nn.gModule</text>
<text text-anchor="start" x="69.3036" y="-166.476" font-family="Times,serif" font-size="14.00"> &#160;(5): nn.gModule</text>
<text text-anchor="middle" x="209.304" y="-151.476" font-family="Times,serif" font-size="14.00">}</text>
</a>
</g>
</g>
<!-- n2 -->
<g id="node2" class="node"><title>n2</title>
<g id="a_node2"><a xlink:title="[[C]]:&#45;1_">
<ellipse fill="none" stroke="black" cx="209.304" cy="-37.4767" rx="77.5641" ry="37.4533"/>
<text text-anchor="middle" x="209.304" y="-48.7767" font-family="Times,serif" font-size="14.00">Node2</text>
<text text-anchor="start" x="162.304" y="-33.7767" font-family="Times,serif" font-size="14.00">reverseMap = {}</text>
<text text-anchor="middle" x="209.304" y="-18.7767" font-family="Times,serif" font-size="14.00">input = {}</text>
</a>
</g>
</g>
<!-- n1&#45;&gt;n2 -->
<g id="edge1" class="edge"><title>n1&#45;&gt;n2</title>
<path fill="none" stroke="black" d="M209.304,-110.882C209.304,-101.975 209.304,-93.3215 209.304,-85.2792"/>
<polygon fill="black" stroke="black" points="212.804,-85.0889 209.304,-75.0889 205.804,-85.089 212.804,-85.0889"/>
</g>
<!-- n3 -->
<g id="node3" class="node"><title>n3</title>
<g id="a_node3"><a xlink:title="[/home/nsharma/torch/install/share/lua/5.2/nngraph/init.lua]:69_">
<ellipse fill="none" stroke="black" cx="209.304" cy="-418.482" rx="124.402" ry="48.1667"/>
<text text-anchor="middle" x="209.304" y="-437.282" font-family="Times,serif" font-size="14.00">Node3</text>
<text text-anchor="start" x="129.304" y="-422.282" font-family="Times,serif" font-size="14.00">mapindex = {Node4,Node5}</text>
<text text-anchor="start" x="129.304" y="-407.282" font-family="Times,serif" font-size="14.00">reverseMap = {}</text>
<text text-anchor="middle" x="209.304" y="-392.282" font-family="Times,serif" font-size="14.00">module = nn.gModule</text>
</a>
</g>
</g>
<!-- n3&#45;&gt;n1 -->
<g id="edge2" class="edge"><title>n3&#45;&gt;n1</title>
<path fill="none" stroke="black" d="M209.304,-370.072C209.304,-362.093 209.304,-353.502 209.304,-344.623"/>
<polygon fill="black" stroke="black" points="212.804,-344.494 209.304,-334.494 205.804,-344.494 212.804,-344.494"/>
</g>
<!-- n4 -->
<g id="node4" class="node"><title>n4</title>
<g id="a_node4"><a xlink:title="[/home/nsharma/torch/install/share/lua/5.2/nngraph/init.lua]:65_">
<ellipse fill="none" stroke="black" cx="209.304" cy="-650.996" rx="94.0904" ry="37.4533"/>
<text text-anchor="middle" x="209.304" y="-662.296" font-family="Times,serif" font-size="14.00">Node4</text>
<text text-anchor="start" x="150.804" y="-647.296" font-family="Times,serif" font-size="14.00">reverseMap = {}</text>
<text text-anchor="middle" x="209.304" y="-632.296" font-family="Times,serif" font-size="14.00">module = nn.Identity</text>
</a>
</g>
</g>
<!-- n4&#45;&gt;n3 -->
<g id="edge3" class="edge"><title>n4&#45;&gt;n3</title>
<path fill="none" stroke="black" d="M183.954,-614.78C177.178,-603.434 170.777,-590.44 167.304,-577.519 158.656,-545.348 159.579,-534.97 167.304,-502.566 169.529,-493.231 172.981,-483.757 176.972,-474.71"/>
<polygon fill="black" stroke="black" points="180.231,-476.002 181.296,-465.461 173.89,-473.037 180.231,-476.002"/>
</g>
<!-- n5 -->
<g id="node5" class="node"><title>n5</title>
<g id="a_node5"><a xlink:title="[./model.lua]:205_">
<ellipse fill="none" stroke="black" cx="270.304" cy="-540.042" rx="94.0904" ry="37.4533"/>
<text text-anchor="middle" x="270.304" y="-551.342" font-family="Times,serif" font-size="14.00">Node5</text>
<text text-anchor="start" x="211.804" y="-536.342" font-family="Times,serif" font-size="14.00">reverseMap = {}</text>
<text text-anchor="middle" x="270.304" y="-521.342" font-family="Times,serif" font-size="14.00">module = nn.Identity</text>
</a>
</g>
</g>
<!-- n4&#45;&gt;n5 -->
<g id="edge6" class="edge"><title>n4&#45;&gt;n5</title>
<path fill="none" stroke="black" d="M229.277,-614.32C234.386,-605.196 239.943,-595.27 245.27,-585.755"/>
<polygon fill="black" stroke="black" points="248.454,-587.233 250.285,-576.798 242.346,-583.813 248.454,-587.233"/>
</g>
<!-- n5&#45;&gt;n3 -->
<g id="edge4" class="edge"><title>n5&#45;&gt;n3</title>
<path fill="none" stroke="black" d="M252.002,-503.17C247.481,-494.309 242.531,-484.609 237.656,-475.053"/>
<polygon fill="black" stroke="black" points="240.683,-473.284 233.02,-465.967 234.447,-476.465 240.683,-473.284"/>
</g>
<!-- n6 -->
<g id="node6" class="node"><title>n6</title>
<g id="a_node6"><a xlink:title="[[C]]:&#45;1_">
<ellipse fill="none" stroke="black" cx="209.304" cy="-761.949" rx="77.5641" ry="37.4533"/>
<text text-anchor="middle" x="209.304" y="-773.249" font-family="Times,serif" font-size="14.00">Node6</text>
<text text-anchor="start" x="162.304" y="-758.249" font-family="Times,serif" font-size="14.00">reverseMap = {}</text>
<text text-anchor="middle" x="209.304" y="-743.249" font-family="Times,serif" font-size="14.00">input = {}</text>
</a>
</g>
</g>
<!-- n6&#45;&gt;n4 -->
<g id="edge5" class="edge"><title>n6&#45;&gt;n4</title>
<path fill="none" stroke="black" d="M209.304,-724.366C209.304,-716.191 209.304,-707.412 209.304,-698.885"/>
<polygon fill="black" stroke="black" points="212.804,-698.667 209.304,-688.667 205.804,-698.667 212.804,-698.667"/>
</g>
</g>
</svg>
