<?xml version="1.0" encoding="UTF-8" standalone="no"?>
<!DOCTYPE svg PUBLIC "-//W3C//DTD SVG 1.1//EN"
 "http://www.w3.org/Graphics/SVG/1.1/DTD/svg11.dtd">
<!-- Generated by graphviz version 2.38.0 (20140413.2041)
 -->
<!-- Title: G Pages: 1 -->
<svg width="435pt" height="1067pt"
 viewBox="0.00 0.00 435.09 1066.87" xmlns="http://www.w3.org/2000/svg" xmlns:xlink="http://www.w3.org/1999/xlink">
<g id="graph0" class="graph" transform="scale(1 1) rotate(0) translate(4 1062.87)">
<title>G</title>
<polygon fill="white" stroke="none" points="-4,4 -4,-1062.87 431.092,-1062.87 431.092,4 -4,4"/>
<!-- n1 -->
<g id="node1" class="node"><title>n1</title>
<g id="a_node1"><a xlink:title="[/home/nsharma/torch/install/share/lua/5.2/nngraph/init.lua]:76_">
<ellipse fill="none" stroke="black" cx="213.546" cy="-222.676" rx="213.593" ry="111.946"/>
<text text-anchor="middle" x="213.546" y="-286.476" font-family="Times,serif" font-size="14.00">Node1</text>
<text text-anchor="start" x="70.5462" y="-271.476" font-family="Times,serif" font-size="14.00">reverseMap = {}</text>
<text text-anchor="start" x="70.5462" y="-256.476" font-family="Times,serif" font-size="14.00">module = nn.Sequential {</text>
<text text-anchor="start" x="70.5462" y="-241.476" font-family="Times,serif" font-size="14.00"> &#160;[input &#45;&gt; (1) &#45;&gt; (2) &#45;&gt; (3) &#45;&gt; (4) &#45;&gt; (5) &#45;&gt; output]</text>
<text text-anchor="start" x="70.5462" y="-226.476" font-family="Times,serif" font-size="14.00"> &#160;(1): nn.SelectTable(2)</text>
<text text-anchor="start" x="70.5462" y="-211.476" font-family="Times,serif" font-size="14.00"> &#160;(2): nn.ReLU</text>
<text text-anchor="start" x="70.5462" y="-196.476" font-family="Times,serif" font-size="14.00"> &#160;(3): nn.SpatialConvolution_masked(12 &#45;&gt; 12, 1x1)</text>
<text text-anchor="start" x="70.5462" y="-181.476" font-family="Times,serif" font-size="14.00"> &#160;(4): nn.ReLU</text>
<text text-anchor="start" x="70.5462" y="-166.476" font-family="Times,serif" font-size="14.00"> &#160;(5): nn.SpatialConvolution_masked(12 &#45;&gt; 4, 1x1)</text>
<text text-anchor="middle" x="213.546" y="-151.476" font-family="Times,serif" font-size="14.00">}</text>
</a>
</g>
</g>
<!-- n2 -->
<g id="node2" class="node"><title>n2</title>
<g id="a_node2"><a xlink:title="[[C]]:&#45;1_">
<ellipse fill="none" stroke="black" cx="213.546" cy="-37.4767" rx="77.5641" ry="37.4533"/>
<text text-anchor="middle" x="213.546" y="-48.7767" font-family="Times,serif" font-size="14.00">Node2</text>
<text text-anchor="start" x="166.546" y="-33.7767" font-family="Times,serif" font-size="14.00">reverseMap = {}</text>
<text text-anchor="middle" x="213.546" y="-18.7767" font-family="Times,serif" font-size="14.00">input = {}</text>
</a>
</g>
</g>
<!-- n1&#45;&gt;n2 -->
<g id="edge1" class="edge"><title>n1&#45;&gt;n2</title>
<path fill="none" stroke="black" d="M213.546,-110.882C213.546,-101.975 213.546,-93.3215 213.546,-85.2792"/>
<polygon fill="black" stroke="black" points="217.046,-85.0889 213.546,-75.0889 210.046,-85.089 217.046,-85.0889"/>
</g>
<!-- n3 -->
<g id="node3" class="node"><title>n3</title>
<g id="a_node3"><a xlink:title="[/home/nsharma/torch/install/share/lua/5.2/nngraph/init.lua]:76_">
<ellipse fill="none" stroke="black" cx="213.546" cy="-482.122" rx="209.107" ry="111.946"/>
<text text-anchor="middle" x="213.546" y="-545.922" font-family="Times,serif" font-size="14.00">Node3</text>
<text text-anchor="start" x="73.5462" y="-530.922" font-family="Times,serif" font-size="14.00">reverseMap = {}</text>
<text text-anchor="start" x="73.5462" y="-515.922" font-family="Times,serif" font-size="14.00">module = nn.Sequential {</text>
<text text-anchor="start" x="73.5462" y="-500.922" font-family="Times,serif" font-size="14.00"> &#160;[input &#45;&gt; (1) &#45;&gt; (2) &#45;&gt; (3) &#45;&gt; (4) &#45;&gt; (5) &#45;&gt; output]</text>
<text text-anchor="start" x="73.5462" y="-485.922" font-family="Times,serif" font-size="14.00"> &#160;(1): nn.gModule</text>
<text text-anchor="start" x="73.5462" y="-470.922" font-family="Times,serif" font-size="14.00"> &#160;(2): nn.gModule</text>
<text text-anchor="start" x="73.5462" y="-455.922" font-family="Times,serif" font-size="14.00"> &#160;(3): nn.gModule</text>
<text text-anchor="start" x="73.5462" y="-440.922" font-family="Times,serif" font-size="14.00"> &#160;(4): nn.gModule</text>
<text text-anchor="start" x="73.5462" y="-425.922" font-family="Times,serif" font-size="14.00"> &#160;(5): nn.gModule</text>
<text text-anchor="middle" x="213.546" y="-410.922" font-family="Times,serif" font-size="14.00">}</text>
</a>
</g>
</g>
<!-- n3&#45;&gt;n1 -->
<g id="edge2" class="edge"><title>n3&#45;&gt;n1</title>
<path fill="none" stroke="black" d="M213.546,-370.074C213.546,-361.753 213.546,-353.332 213.546,-344.953"/>
<polygon fill="black" stroke="black" points="217.046,-344.764 213.546,-334.764 210.046,-344.764 217.046,-344.764"/>
</g>
<!-- n4 -->
<g id="node4" class="node"><title>n4</title>
<g id="a_node4"><a xlink:title="[/home/nsharma/torch/install/share/lua/5.2/nngraph/init.lua]:69_">
<ellipse fill="none" stroke="black" cx="213.546" cy="-677.928" rx="124.402" ry="48.1667"/>
<text text-anchor="middle" x="213.546" y="-696.728" font-family="Times,serif" font-size="14.00">Node4</text>
<text text-anchor="start" x="133.546" y="-681.728" font-family="Times,serif" font-size="14.00">reverseMap = {}</text>
<text text-anchor="start" x="133.546" y="-666.728" font-family="Times,serif" font-size="14.00">mapindex = {Node5,Node6}</text>
<text text-anchor="middle" x="213.546" y="-651.728" font-family="Times,serif" font-size="14.00">module = nn.gModule</text>
</a>
</g>
</g>
<!-- n4&#45;&gt;n3 -->
<g id="edge3" class="edge"><title>n4&#45;&gt;n3</title>
<path fill="none" stroke="black" d="M213.546,-629.518C213.546,-621.539 213.546,-612.947 213.546,-604.069"/>
<polygon fill="black" stroke="black" points="217.046,-603.94 213.546,-593.94 210.046,-603.94 217.046,-603.94"/>
</g>
<!-- n5 -->
<g id="node5" class="node"><title>n5</title>
<g id="a_node5"><a xlink:title="[/home/nsharma/torch/install/share/lua/5.2/nngraph/init.lua]:65_">
<ellipse fill="none" stroke="black" cx="213.546" cy="-910.441" rx="94.0904" ry="37.4533"/>
<text text-anchor="middle" x="213.546" y="-921.741" font-family="Times,serif" font-size="14.00">Node5</text>
<text text-anchor="start" x="155.046" y="-906.741" font-family="Times,serif" font-size="14.00">reverseMap = {}</text>
<text text-anchor="middle" x="213.546" y="-891.741" font-family="Times,serif" font-size="14.00">module = nn.Identity</text>
</a>
</g>
</g>
<!-- n5&#45;&gt;n4 -->
<g id="edge4" class="edge"><title>n5&#45;&gt;n4</title>
<path fill="none" stroke="black" d="M188.197,-874.226C181.421,-862.88 175.019,-849.885 171.546,-836.965 162.898,-804.794 163.821,-794.416 171.546,-762.011 173.772,-752.676 177.224,-743.202 181.215,-734.156"/>
<polygon fill="black" stroke="black" points="184.474,-735.448 185.539,-724.907 178.133,-732.483 184.474,-735.448"/>
</g>
<!-- n6 -->
<g id="node6" class="node"><title>n6</title>
<g id="a_node6"><a xlink:title="[./model.lua]:205_">
<ellipse fill="none" stroke="black" cx="274.546" cy="-799.488" rx="94.0904" ry="37.4533"/>
<text text-anchor="middle" x="274.546" y="-810.788" font-family="Times,serif" font-size="14.00">Node6</text>
<text text-anchor="start" x="216.046" y="-795.788" font-family="Times,serif" font-size="14.00">reverseMap = {}</text>
<text text-anchor="middle" x="274.546" y="-780.788" font-family="Times,serif" font-size="14.00">module = nn.Identity</text>
</a>
</g>
</g>
<!-- n5&#45;&gt;n6 -->
<g id="edge7" class="edge"><title>n5&#45;&gt;n6</title>
<path fill="none" stroke="black" d="M233.52,-873.766C238.628,-864.642 244.185,-854.716 249.513,-845.201"/>
<polygon fill="black" stroke="black" points="252.696,-846.679 254.528,-836.244 246.589,-843.259 252.696,-846.679"/>
</g>
<!-- n6&#45;&gt;n4 -->
<g id="edge5" class="edge"><title>n6&#45;&gt;n4</title>
<path fill="none" stroke="black" d="M256.244,-762.616C251.723,-753.755 246.774,-744.054 241.898,-734.498"/>
<polygon fill="black" stroke="black" points="244.925,-732.729 237.263,-725.412 238.69,-735.911 244.925,-732.729"/>
</g>
<!-- n7 -->
<g id="node7" class="node"><title>n7</title>
<g id="a_node7"><a xlink:title="[[C]]:&#45;1_">
<ellipse fill="none" stroke="black" cx="213.546" cy="-1021.39" rx="77.5641" ry="37.4533"/>
<text text-anchor="middle" x="213.546" y="-1032.69" font-family="Times,serif" font-size="14.00">Node7</text>
<text text-anchor="start" x="166.546" y="-1017.69" font-family="Times,serif" font-size="14.00">reverseMap = {}</text>
<text text-anchor="middle" x="213.546" y="-1002.69" font-family="Times,serif" font-size="14.00">input = {}</text>
</a>
</g>
</g>
<!-- n7&#45;&gt;n5 -->
<g id="edge6" class="edge"><title>n7&#45;&gt;n5</title>
<path fill="none" stroke="black" d="M213.546,-983.812C213.546,-975.637 213.546,-966.857 213.546,-958.331"/>
<polygon fill="black" stroke="black" points="217.046,-958.113 213.546,-948.113 210.046,-958.113 217.046,-958.113"/>
</g>
</g>
</svg>
